<svg aria-hidden="true" class="absolute inset-0 -z-10 h-full w-full stroke-gray-200 [mask-image:linear-gradient(180deg,white,rgba(255,255,255,0))] dark:stroke-gray-800" xmlns="http://www.w3.org/2000/svg">
  <defs>
    <pattern id="grid-pattern" width="40" height="40" x="50%" y="-1" patternUnits="userSpaceOnUse" patternTransform="translate(0 0)">
      <path d="M0 40L40 0" stroke-width="0.5" vector-effect="non-scaling-stroke" class="stroke-gray-200 dark:stroke-gray-800"/>
    </pattern>
  </defs>
  <rect width="100%" height="100%" fill="url(#grid-pattern)" />
  <svg x="50%" y="-1" class="overflow-visible">
    <path d="M0 0L0 40L-40 0L0 0z" fill="none" stroke-width="0.5" vector-effect="non-scaling-stroke" class="stroke-gray-200 dark:stroke-gray-800" />
  </svg>
  <svg x="50%" y="-1" class="overflow-visible">
    <path d="M0 0L40 0L0 40L0 0z" fill="none" stroke-width="0.5" vector-effect="non-scaling-stroke" class="stroke-gray-200 dark:stroke-gray-800" />
  </svg>
  <svg x="50%" y="39" class="overflow-visible">
    <path d="M0 0L40 0L0 -40L0 0z" fill="none" stroke-width="0.5" vector-effect="non-scaling-stroke" class="stroke-gray-200 dark:stroke-gray-800" />
  </svg>
  <svg x="50%" y="39" class="overflow-visible">
    <path d="M0 0L-40 0L0 -40L0 0z" fill="none" stroke-width="0.5" vector-effect="non-scaling-stroke" class="stroke-gray-200 dark:stroke-gray-800" />
  </svg>
  <svg x="-1" y="-1" class="overflow-visible">
    <path d="M0 0L40 0L0 40L0 0z" fill="none" stroke-width="0.5" vector-effect="non-scaling-stroke" class="stroke-gray-200 dark:stroke-gray-800" />
  </svg>
  <svg x="39" y="-1" class="overflow-visible">
    <path d="M0 0L-40 0L0 40L0 0z" fill="none" stroke-width="0.5" vector-effect="non-scaling-stroke" class="stroke-gray-200 dark:stroke-gray-800" />
  </svg>
  <svg x="-1" y="39" class="overflow-visible">
    <path d="M0 0L40 0L0 -40L0 0z" fill="none" stroke-width="0.5" vector-effect="non-scaling-stroke" class="stroke-gray-200 dark:stroke-gray-800" />
  </svg>
  <svg x="39" y="39" class="overflow-visible">
    <path d="M0 0L-40 0L0 -40L0 0z" fill="none" stroke-width="0.5" vector-effect="non-scaling-stroke" class="stroke-gray-200 dark:stroke-gray-800" />
  </svg>
</svg>
